<svg width="16" height="16" viewBox="0 0 16 16" fill="none" xmlns="http://www.w3.org/2000/svg"><path d="M6.37785 12.829C7.62851 12.829 8.8005 12.455 9.77586 11.816L13.2211 15.2368C13.4492 15.455 13.7402 15.5641 14.0548 15.5641C14.7077 15.5641 15.1875 15.0576 15.1875 14.4186C15.1875 14.1225 15.0852 13.8342 14.865 13.616L11.4434 10.2108C12.1513 9.21341 12.5682 8.00562 12.5682 6.69652C12.5682 3.3225 9.78372 0.564056 6.37785 0.564056C2.97984 0.564056 0.1875 3.3225 0.1875 6.69652C0.1875 10.0706 2.97198 12.829 6.37785 12.829ZM6.37785 11.1926C3.88441 11.1926 1.83931 9.16665 1.83931 6.69652C1.83931 4.22639 3.88441 2.20042 6.37785 2.20042C8.8713 2.20042 10.9164 4.22639 10.9164 6.69652C10.9164 9.16665 8.8713 11.1926 6.37785 11.1926Z" fill="#333336"/></svg>
