<svg width="163" height="49" viewBox="0 0 163 49" fill="none" xmlns="http://www.w3.org/2000/svg">
<g clip-path="url(#clip0_89_620)">
<path fill-rule="evenodd" clip-rule="evenodd" d="M38.1629 1H9.83712C4.40423 1 0 5.40423 0 10.8371V39.1629C0 44.5958 4.40423 49 9.83712 49H38.1629C43.5958 49 48 44.5958 48 39.1629V10.8371C48 5.40423 43.5958 1 38.1629 1ZM13.5 19.8852C16.5376 19.8852 19 17.4228 19 14.3852C19 11.3476 16.5376 8.88519 13.5 8.88519C10.4624 8.88519 8 11.3476 8 14.3852C8 17.4228 10.4624 19.8852 13.5 19.8852ZM45 14.4219C45 17.4594 42.5376 19.9219 39.5 19.9219C36.4624 19.9219 34 17.4594 34 14.4219C34 11.3843 36.4624 8.92188 39.5 8.92188C42.5376 8.92188 45 11.3843 45 14.4219Z" fill="#5865F2"/>
</g>
<path d="M89.2018 35.2765L89.1732 23.2764L83.2874 33.1622H81.2017L75.3445 23.5335V35.2765H71.0016V15.2763H74.8302L82.316 27.705L89.6875 15.2763H93.4876L93.5447 35.2765H89.2018ZM112.976 24.8764C114.119 25.2383 115.014 25.8478 115.661 26.705C116.309 27.5431 116.633 28.5812 116.633 29.8193C116.633 31.5717 115.947 32.9241 114.576 33.8765C113.223 34.8098 111.242 35.2765 108.633 35.2765H98.2898V15.2763H108.061C110.499 15.2763 112.366 15.7429 113.661 16.6763C114.976 17.6096 115.633 18.8763 115.633 20.4763C115.633 21.4478 115.395 22.3144 114.919 23.0764C114.461 23.8383 113.814 24.4383 112.976 24.8764ZM102.89 18.762V23.4764H107.49C108.633 23.4764 109.499 23.2764 110.09 22.8763C110.68 22.4763 110.976 21.8859 110.976 21.1049C110.976 20.3239 110.68 19.743 110.09 19.362C109.499 18.962 108.633 18.762 107.49 18.762H102.89ZM108.29 31.7907C109.509 31.7907 110.423 31.5907 111.033 31.1907C111.661 30.7907 111.976 30.1717 111.976 29.3336C111.976 27.6764 110.747 26.8478 108.29 26.8478H102.89V31.7907H108.29ZM126.852 35.4479C125.347 35.4479 123.994 35.1146 122.794 34.4479C121.594 33.7812 120.651 32.8669 119.966 31.705C119.299 30.5241 118.966 29.1907 118.966 27.705C118.966 26.2192 119.299 24.8954 119.966 23.7335C120.651 22.5525 121.594 21.6382 122.794 20.9906C123.994 20.3239 125.347 19.9906 126.852 19.9906C128.356 19.9906 129.699 20.3239 130.88 20.9906C132.08 21.6382 133.014 22.5525 133.68 23.7335C134.366 24.8954 134.709 26.2192 134.709 27.705C134.709 29.1907 134.366 30.5241 133.68 31.705C133.014 32.8669 132.08 33.7812 130.88 34.4479C129.699 35.1146 128.356 35.4479 126.852 35.4479ZM126.852 33.0479C127.823 33.0479 128.69 32.8288 129.452 32.3907C130.233 31.9336 130.842 31.305 131.28 30.505C131.718 29.686 131.937 28.7526 131.937 27.705C131.937 26.6573 131.718 25.7335 131.28 24.9335C130.842 24.1145 130.233 23.4859 129.452 23.0478C128.69 22.6097 127.823 22.3906 126.852 22.3906C125.88 22.3906 125.004 22.6097 124.223 23.0478C123.461 23.4859 122.851 24.1145 122.394 24.9335C121.956 25.7335 121.737 26.6573 121.737 27.705C121.737 28.7526 121.956 29.686 122.394 30.505C122.851 31.305 123.461 31.9336 124.223 32.3907C125.004 32.8288 125.88 33.0479 126.852 33.0479ZM147.016 34.3908C146.616 34.7336 146.121 35.0003 145.531 35.1908C144.94 35.3622 144.331 35.4479 143.702 35.4479C142.178 35.4479 140.997 35.0384 140.159 34.2193C139.321 33.4003 138.902 32.2288 138.902 30.705V22.3906H136.331V20.1335H138.902V16.8191H141.645V20.1335H145.988V22.3906H141.645V30.5907C141.645 31.4098 141.845 32.0384 142.245 32.4765C142.664 32.9146 143.255 33.1336 144.016 33.1336C144.855 33.1336 145.569 32.8955 146.159 32.4193L147.016 34.3908ZM154.676 35.4479C153.437 35.4479 152.247 35.286 151.104 34.9622C149.961 34.6193 149.066 34.1908 148.418 33.6765L149.561 31.505C150.228 31.9812 151.037 32.3622 151.99 32.6479C152.942 32.9336 153.904 33.0765 154.876 33.0765C157.276 33.0765 158.476 32.3907 158.476 31.0193C158.476 30.5622 158.314 30.2002 157.99 29.9336C157.666 29.6669 157.256 29.4764 156.761 29.3621C156.285 29.2288 155.599 29.0859 154.704 28.9336C153.485 28.7431 152.485 28.524 151.704 28.2764C150.942 28.0288 150.285 27.6097 149.733 27.0193C149.18 26.4288 148.904 25.6002 148.904 24.5335C148.904 23.1621 149.475 22.0668 150.618 21.2478C151.761 20.4097 153.295 19.9906 155.218 19.9906C156.228 19.9906 157.237 20.1144 158.247 20.362C159.257 20.6097 160.085 20.943 160.733 21.362L159.561 23.5335C158.323 22.7335 156.866 22.3335 155.19 22.3335C154.028 22.3335 153.142 22.524 152.533 22.9049C151.923 23.2859 151.618 23.7906 151.618 24.4192C151.618 24.9145 151.79 25.3049 152.133 25.5907C152.475 25.8764 152.895 26.0859 153.39 26.2192C153.904 26.3526 154.618 26.505 155.533 26.6764C156.752 26.8859 157.733 27.1145 158.476 27.3621C159.237 27.5907 159.885 27.9907 160.418 28.5621C160.952 29.1336 161.218 29.9336 161.218 30.9622C161.218 32.3336 160.628 33.4288 159.447 34.2479C158.285 35.0479 156.695 35.4479 154.676 35.4479Z" fill="#333336"/>
<defs>
<clipPath id="clip0_89_620">
<rect y="0.921875" width="48" height="48" fill="white"/>
</clipPath>
</defs>
</svg>
